HIERARCHY
ROOT Hips
{
	OFFSET	0.00	0.00	0.00
	CHANNELS 6 Xposition Yposition Zposition Zrotation Xrotation Yrotation
	JOINT Spine
	{
		OFFSET	 0.00	0.01	 0.00
		CHANNELS 3 Zrotation Xrotation Yrotation
		JOINT Spine1
		{
			OFFSET	 0.00	 2.45913012437421	 0.00
			CHANNELS 3 Zrotation Xrotation Yrotation
            JOINT Neck
            {
                OFFSET	 0.00	 2.48462964506057	 0.00
                CHANNELS 3 Zrotation Xrotation Yrotation
                JOINT Head
                {
                    OFFSET	 0.00	 0.927524780924562	 0.00
                    CHANNELS 3 Zrotation Xrotation Yrotation
                    End Site 
                    {
                        OFFSET	 0.00	 1.14999962169752	 0.00
                    }
                }
            }
			JOINT LeftShoulder
			{
				OFFSET	 0.00	 2.48462964506057	 0.00
				CHANNELS 3 Zrotation Xrotation Yrotation
				JOINT LeftUpArm
				{
					OFFSET	 0.00	 1.24881979654096	 0.00
					CHANNELS 3 Zrotation Xrotation Yrotation
					JOINT LeftForeArm
					{
						OFFSET	 0.00	2.59758046908119	 0.00
						CHANNELS 3 Zrotation Xrotation Yrotation
						JOINT LeftHand
						{
							OFFSET	 0.00	2.45542024364365	 0.00
							CHANNELS 3 Zrotation Xrotation Yrotation
							JOINT LeftHandThumb 
							{
								OFFSET	 0.00	0.00	 0.00
								CHANNELS 3 Zrotation Xrotation Yrotation
								End Site
								{
									OFFSET	 0.00	0.00	1.00000003353624
								}
							}
							JOINT L_Wrist_End 
							{
								OFFSET	 0.00	0.99999967115358	 0.00
								CHANNELS 3 Zrotation Xrotation Yrotation
								End Site 
								{
									OFFSET	 0.00	 0.00	 0.00
								}
							}
						}
					}
				}
			}
			JOINT RightShoulder
			{
				OFFSET	 0.00	 2.48462964506057	 0.00
				CHANNELS 3 Zrotation Xrotation Yrotation
				JOINT RightUpArm
				{
					OFFSET	 0.00	 1.24881979654096	 0.00
					CHANNELS 3 Zrotation Xrotation Yrotation
					JOINT RightForeArm
					{
						OFFSET	 0.00	2.59758046908119	 0.00
						CHANNELS 3 Zrotation Xrotation Yrotation
						JOINT RightHand
						{
							OFFSET	 0.00	2.45542024364365	 0.00
							CHANNELS 3 Zrotation Xrotation Yrotation
							JOINT RightHandThumb 
							{
								OFFSET	 0.00	0.00	 0.00
								CHANNELS 3 Zrotation Xrotation Yrotation
								End Site
								{
									OFFSET	 0.00	0.00	1.00000003353624
								}
							}
							JOINT R_Wrist_End 
							{
								OFFSET	 0.00	0.99999967115358	 0.00
								CHANNELS 3 Zrotation Xrotation Yrotation
								End Site 
								{
									OFFSET	 0.00	 0.00	 0.00
								}
							}
						}
					}
				}
			}
		}
	}
	JOINT LeftUpLeg
	{
		OFFSET	 1.2719394002717	 0.00	 0.00
		CHANNELS 3 Zrotation Xrotation Yrotation
		JOINT LeftLowLeg
		{
			OFFSET	 0.00	-4.3429100912261	 0.00
			CHANNELS 3 Zrotation Xrotation Yrotation
			JOINT LeftFoot
			{
				OFFSET	 0.00	-4.48767017425826	 0.00
				CHANNELS 3 Zrotation Xrotation Yrotation
				JOINT LeftToeBase
                {
                    OFFSET	 0.00	0.00	 1.51507020887566
                    CHANNELS 3 Zrotation Xrotation Yrotation
                    End Site 
                    {
                        OFFSET	 0.00	0.00	 0.75000010571191
                    }
                }
			}
		}
	}
	JOINT RightUpLeg
	{
		OFFSET	 -1.2719393604653	 0.00	 0.00
		CHANNELS 3 Zrotation Xrotation Yrotation
		JOINT RightLowLeg
		{
			OFFSET	 0.00	-4.3429100912261	 0.00
			CHANNELS 3 Zrotation Xrotation Yrotation
			JOINT RightFoot
			{
				OFFSET	 0.00	-4.48767017425826	 0.00
				CHANNELS 3 Zrotation Xrotation Yrotation
				JOINT RightToeBase
                {
                    OFFSET	 0.00	0.00	 1.51507020887566
                    CHANNELS 3 Zrotation Xrotation Yrotation
                    End Site 
                    {
                        OFFSET	 0.00	0.00	 0.749999965609858
                    }
                }   
			}
		}
	}
}
MOTION 
Frames:	15 
Frame Time: 0.02 
 1.8926499938964845 7.086090087890625 9.769310302734375 -153.885 80.4755 157.34 2.82611 -11.0717 -2.17592 0.658548 5.70259 -2.52676 -4.80175 45.1786 4.13912 13.0621 -45.9793 7.9175 -90.707664 -16.2358 -4.95251 -8.1557 2.88351 -30.8317 0.0 21.1017 0.0 31.6584 -9.23151 31.0342 0.0 0.0 0.0 0.0 0.0 0.0 98.27585 -13.9884 3.1242 5.35611 2.05935 34.2282 0.0 26.2401 0.0 -18.1788 -1.38997 -28.2516 0.0 0.0 0.0 0.0 0.0 0.0 7.61103 -6.40098 -1.84497 0.0 7.73657 0.0 7.29181 3.9467 1.57035 0.0 -31.6417 0.0 1.20796 -3.36773 2.93945 0.0 5.51299 0.0 7.74307 9.07743 -7.07364 0.0 -27.2381 0.0 
  1.8926199340820313 7.086259765625 9.769299926757812 -153.895 80.4763 157.345 2.82442 -11.0582 -2.18249 0.655502 5.6731 -2.53283 -4.8152 45.1775 4.16296 13.0933 -45.9851 7.91421 -90.71078 -16.2211 -4.94102 -8.15382 2.86343 -30.8445 0.0 21.0465 0.0 31.6817 -9.12464 31.0295 0.0 0.0 0.0 0.0 0.0 0.0 98.27338 -13.9768 3.10168 5.3563 2.04834 34.217 0.0 26.2521 0.0 -18.2366 -1.40802 -28.3547 0.0 0.0 0.0 0.0 0.0 0.0 7.61149 -6.39532 -1.8244 0.0 7.72607 0.0 7.29078 3.9483995 1.55154 0.0 -31.639 0.0 1.20723 -3.37123 2.95256 0.0 5.51721 0.0 7.74806 9.07173 -7.08032 0.0 -27.2295 0.0 
  1.8926899719238282 7.086530151367188 9.769290161132812 -153.902 80.475 157.342 2.82385 -11.0495 -2.17776 0.654648 5.65571 -2.52769 -4.78901 45.1582 4.1353 13.1188 -45.9843 7.92256 -90.70674 -16.2145 -4.95089 -8.17448 2.86647 -30.8418 0.0 21.0384 0.0 31.6932 -9.11488 30.9888 0.0 0.0 0.0 0.0 0.0 0.0 98.27666 -13.9702 3.10964 5.36177 2.04859 34.2611 0.0 26.2295 0.0 -18.2644 -1.38435 -28.4889 0.0 0.0 0.0 0.0 0.0 0.0 7.61095 -6.39618 -1.81502 0.0 7.72699 0.0 7.29634 3.9490004 1.55629 0.0 -31.6454 0.0 1.20638 -3.3736 2.95246 0.0 5.5118 0.0 7.75132 9.077 -7.07121 0.0 -27.237701 0.0 
  1.8927400207519531 7.08677978515625 9.769409790039063 -153.909 80.4726 157.343 2.82463 -11.0359 -2.17771 0.654094 5.63144 -2.52774 -4.72591 45.1575 4.05053 13.107 -45.9967 7.96114 -90.70601 -16.2227 -4.94223 -8.20085 2.8825 -30.879 0.0 21.0307 0.0 31.6859 -9.03184 30.9788 0.0 0.0 0.0 0.0 0.0 0.0 98.27301 -13.9747 3.09715 5.37982 2.01652 34.2516 0.0 26.2876 0.0 -18.2713 -1.41286 -28.5861 0.0 0.0 0.0 0.0 0.0 0.0 7.61164 -6.40009 -1.81102 0.0 7.72931 0.0 7.29185 3.9505997 1.55482 0.0 -31.6588 0.0 1.206 -3.37588 2.96621 0.0 5.50541 0.0 7.74859 9.08535 -7.07828 0.0 -27.236599 0.0 
  1.8929800415039062 7.08739990234375 9.769420166015625 -153.932 80.4605 157.363 2.82875 -11.021 -2.1744 0.651033 5.5754 -2.52521 -4.67501 45.1341 3.98327 13.1377 -46.0178 7.97156 -90.72788 -16.1856 -4.93288 -8.21118 2.87141 -30.9311 0.0 21.0453 0.0 31.6099 -9.08926 30.9219 0.0 0.0 0.0 0.0 0.0 0.0 98.26691 -13.9758 3.09219 5.43796 1.96813 34.3113 0.0 26.3731 0.0 -18.1627 -1.45384 -28.3085 0.0 0.0 0.0 0.0 0.0 0.0 7.61073 -6.41143 -1.81259 0.0 7.72178 0.0 7.29733 3.9540005 1.56519 0.0 -31.6578 0.0 1.2049 -3.38478 2.96666 0.0 5.49076 0.0 7.74775 9.09462 -7.0769 0.0 -27.2403 0.0 
  1.8931500244140624 7.0876397705078125 9.769320068359375 -153.954 80.4569 157.383 2.82772 -11.0227 -2.17317 0.648472 5.56758 -2.52358 -4.64292 45.0958 3.93966 13.1376 -46.0075 7.96124 -90.73495 -16.1577 -4.92443 -8.2015 2.86108 -30.901 0.0 21.0221 0.0 31.5898 -9.07304 30.9791 0.0 0.0 0.0 0.0 0.0 0.0 98.26944 -13.968 3.10028 5.46388 1.96883 34.363 0.0 26.3407 0.0 -18.1779 -1.4236 -28.2444 0.0 0.0 0.0 0.0 0.0 0.0 7.60837 -6.41214 -1.81365 0.0 7.71217 0.0 7.292 3.9557 1.5631 0.0 -31.6426 0.0 1.20085 -3.38672 2.95862 0.0 5.48098 0.0 7.75363 9.09612 -7.06593 0.0 -27.240501 0.0 
  1.8931900024414063 7.0876702880859375 9.769249877929688 -153.968 80.4526 157.39 2.82388 -11.0261 -2.17458 0.651443 5.56012 -2.52371 -4.62129 45.0718 3.91817 13.1407 -46.0042 7.97722 -90.737114 -16.1507 -4.93443 -8.20806 2.86346 -30.886 0.0 21.0159 0.0 31.5982 -9.09225 30.9808 0.0 0.0 0.0 0.0 0.0 0.0 98.30068 -13.9519 3.10617 5.42691 1.99356 34.3696 0.0 26.2428 0.0 -18.1742 -1.36493 -28.2697 0.0 0.0 0.0 0.0 0.0 0.0 7.60974 -6.40744 -1.79566 0.0 7.69686 0.0 7.28574 3.9527998 1.54964 0.0 -31.6346 0.0 1.20022 -3.39155 2.96886 0.0 5.47965 0.0 7.75326 9.094 -7.06905 0.0 -27.242401 0.0 
  1.8932600402832032 7.087689819335938 9.769130249023437 -153.983 80.4484 157.401 2.82146 -11.0314 -2.17199 0.651345 5.55086 -2.5202 -4.66397 45.0484 3.98982 13.1819 -45.9949 7.96195 -90.72835 -16.1453 -4.93097 -8.2309 2.87885 -30.9027 0.0 21.0182 0.0 31.646 -9.07709 31.097 0.0 0.0 0.0 0.0 0.0 0.0 98.30381 -13.9325 3.11188 5.42845 1.95828 34.2708 0.0 26.24 0.0 -18.4028 -1.42773 -28.8086 0.0 0.0 0.0 0.0 0.0 0.0 7.60975 -6.40894 -1.77462 0.0 7.6916 0.0 7.285 3.9482002 1.53664 0.0 -31.636 0.0 1.19924 -3.39471 2.98724 0.0 5.47407 0.0 7.75795 9.09136 -7.07961 0.0 -27.243301 0.0 
  1.8933599853515626 7.08760009765625 9.769149780273438 -153.97 80.4479 157.38 2.82153 -11.0359 -2.17436 0.663567 5.54804 -2.52242 -4.69642 45.0451 4.03818 13.193 -46.0182 7.97052 -90.74501 -16.1393 -4.93608 -8.23526 2.88516 -30.9008 0.0 21.0176 0.0 31.6134 -9.06883 31.0295 0.0 0.0 0.0 0.0 0.0 0.0 98.3237 -13.9103 3.10256 5.38273 1.95857 34.2509 0.0 26.1693 0.0 -18.1901 -1.31814 -28.3391 0.0 0.0 0.0 0.0 0.0 0.0 7.61289 -6.40325 -1.76896 0.0 7.68662 0.0 7.2872 3.9508 1.53537 0.0 -31.6607 0.0 1.2013 -3.39118 2.99063 0.0 5.46746 0.0 7.75744 9.09852 -7.07632 0.0 -27.2309 0.0 
  1.893489990234375 7.08760986328125 9.769110107421875 -153.969 80.4481 157.368 2.82569 -11.0426 -2.1719 0.666049 5.54309 -2.52106 -4.74302 45.0124 4.11373 13.2245 -46.0049 7.94904 -90.74986 -16.1343 -4.9348 -8.23397 2.91259 -30.8015 0.0 20.9908 0.0 31.6442 -9.06581 31.0014 0.0 0.0 0.0 0.0 0.0 0.0 98.317566 -13.9023 3.08326 5.42927 1.97406 34.3539 0.0 26.1871 0.0 -18.1952 -1.29714 -28.322 0.0 0.0 0.0 0.0 0.0 0.0 7.61317 -6.39736 -1.74771 0.0 7.68136 0.0 7.30153 3.9497995 1.53364 0.0 -31.6532 0.0 1.20075 -3.3903 2.98427 0.0 5.46444 0.0 7.75194 9.100019 -7.06326 0.0 -27.2358 0.0 
  1.893489990234375 7.08760986328125 9.769110107421875 -153.969 80.4481 157.368 2.82569 -11.0426 -2.1719 0.666049 5.54309 -2.52106 -4.74302 45.0124 4.11373 13.2245 -46.0049 7.94904 -90.74986 -16.1343 -4.9348 -8.23397 2.91259 -30.8015 0.0 20.9908 0.0 31.6442 -9.06581 31.0014 0.0 0.0 0.0 0.0 0.0 0.0 98.317566 -13.9023 3.08326 5.42927 1.97406 34.3539 0.0 26.1871 0.0 -18.1952 -1.29714 -28.322 0.0 0.0 0.0 0.0 0.0 0.0 7.61317 -6.39736 -1.74771 0.0 7.68136 0.0 7.30153 3.9497995 1.53364 0.0 -31.6532 0.0 1.20075 -3.3903 2.98427 0.0 5.46444 0.0 7.75194 9.100019 -7.06326 0.0 -27.2358 0.0 
  1.8938099670410156 7.087579956054688 9.769229736328125 -154.007 80.4481 157.404 2.82787 -11.0507 -2.17179 0.660256 5.53782 -2.52159 -4.76137 45.0011 4.15392 13.2562 -46.0013 7.95984 -90.76051 -16.122 -4.91552 -8.22445 2.93358 -30.7759 0.0 20.9774 0.0 31.6695 -9.06124 31.0212 0.0 0.0 0.0 0.0 0.0 0.0 98.32555 -13.9061 3.09926 5.48549 1.98204 34.3927 0.0 26.3019 0.0 -18.3854 -1.42066 -28.8593 0.0 0.0 0.0 0.0 0.0 0.0 7.60402 -6.39232 -1.79272 0.0 7.66854 0.0 7.28377 3.9646997 1.56607 0.0 -31.6489 0.0 1.19328 -3.38733 2.97159 0.0 5.45259 0.0 7.7506 9.10666 -7.05209 0.0 -27.2281 0.0 
  1.8938900756835937 7.087559814453125 9.769219970703125 -154.009 80.4457 157.405 2.83005 -11.0556 -2.17212 0.663369 5.52741 -2.52244 -4.64558 45.0019 3.99332 13.1786 -45.9598 8.00628 -90.771225 -16.107 -4.90975 -8.23202 2.94639 -30.8525 0.0 20.9822 0.0 31.6766 -9.04326 31.0008 0.0 0.0 0.0 0.0 0.0 0.0 98.32292 -13.9941 3.10376 5.51493 2.09513 34.321 0.0 26.3462 0.0 -18.3434 -1.45258 -28.9709 0.0 0.0 0.0 0.0 0.0 0.0 7.60496 -6.39777 -1.7835 0.0 7.67637 0.0 7.28511 3.9576998 1.5577 0.0 -31.6378 0.0 1.19312 -3.38972 2.9652 0.0 5.45289 0.0 7.74126 9.1088295 -7.04913 0.0 -27.2393 0.0 
  1.8940299987792968 7.087420043945312 9.76906982421875 -154.001 80.4487 157.399 2.82854 -11.0663 -2.17792 0.669677 5.53903 -2.52789 -4.6034 45.003 3.92964 13.1496 -45.95 8.01329 -90.78505 -16.119 -4.91344 -8.2409 2.98402 -30.9145 0.0 20.9883 0.0 31.7418 -9.06616 30.9709 0.0 0.0 0.0 0.0 0.0 0.0 98.34822 -13.9824 3.09177 5.49306 2.12373 34.3339 0.0 26.3308 0.0 -18.2388 -1.45852 -28.9739 0.0 0.0 0.0 0.0 0.0 0.0 7.60357 -6.39906 -1.76283 0.0 7.68636 0.0 7.30699 3.9502 1.55116 0.0 -31.6527 0.0 1.19197 -3.38629 2.96919 0.0 5.45466 0.0 7.75023 9.10271 -7.04939 0.0 -27.2373 0.0 
  1.8941600036621093 7.087440185546875 9.769010009765625 -153.985 80.4557 157.387 2.82582 -11.0737 -2.17664 0.681429 5.55468 -2.52568 -4.59048 45.0023 3.90828 13.1669 -45.9559 8.00149 -90.80515 -16.1031 -4.91596 -8.24673 3.00729 -30.9115 0.0 20.9915 0.0 31.7648 -9.02987 30.9442 0.0 0.0 0.0 0.0 0.0 0.0 98.36809 -13.9596 3.09579 5.47536 2.09565 34.2996 0.0 26.3289 0.0 -18.224 -1.42837 -28.9165 0.0 0.0 0.0 0.0 0.0 0.0 7.60325 -6.39784 -1.76424 0.0 7.69676 0.0 7.2852 3.9392004 1.53761 0.0 -31.6387 0.0 1.19043 -3.38126 2.96767 0.0 5.46166 0.0 7.75746 9.09495 -7.04576 0.0 -27.249 0.0 
